<?xml version="1.0" standalone="no"?>
<!DOCTYPE svg PUBLIC "-//W3C//DTD SVG 20010904//EN"
 "http://www.w3.org/TR/2001/REC-SVG-20010904/DTD/svg10.dtd">
<svg version="1.0" xmlns="http://www.w3.org/2000/svg"
 width="896.000000pt" height="1152.000000pt" viewBox="0 0 896.000000 1152.000000"
 preserveAspectRatio="xMidYMid meet">
<metadata>
Created by potrace 1.16, written by Peter Selinger 2001-2019
</metadata>
<g transform="translate(0.000000,1152.000000) scale(0.100000,-0.100000)"
fill="#000000" stroke="none">
<path d="M3637 7623 c-4 -3 -7 -21 -7 -40 0 -37 -6 -35 110 -37 41 -1 85 -5
97 -10 19 -6 25 -3 34 20 5 16 8 39 4 51 -5 22 -9 23 -119 23 -62 0 -116 -3
-119 -7z m53 -44 c0 -5 -4 -9 -10 -9 -5 0 -10 7 -10 16 0 8 5 12 10 9 6 -3 10
-10 10 -16z"/>
<path d="M5087 7624 c-21 -22 5 -103 27 -85 7 6 52 8 109 6 95 -4 97 -4 103
20 14 57 9 60 -117 63 -63 1 -118 -1 -122 -4z m43 -40 c0 -8 -5 -12 -10 -9 -6
4 -8 11 -5 16 9 14 15 11 15 -7z"/>
<path d="M3756 7512 c-55 -1 -106 -8 -113 -14 -7 -6 -13 -30 -13 -54 0 -51 22
-79 54 -69 24 8 107 7 148 -1 24 -5 30 -1 39 23 10 28 4 110 -9 115 -4 2 -52
2 -106 0z"/>
<path d="M5093 7504 c-9 -22 -9 -132 0 -141 4 -3 13 0 22 7 11 9 40 11 104 8
57 -4 93 -2 100 5 11 11 15 95 6 119 -4 10 -26 12 -103 7 -56 -3 -102 -2 -109
4 -9 6 -15 4 -20 -9z m47 -79 c0 -8 -4 -15 -10 -15 -5 0 -10 7 -10 15 0 8 5
15 10 15 6 0 10 -7 10 -15z"/>
<path d="M3641 7327 c-11 -11 -15 -65 -6 -89 4 -11 154 -13 842 -12 837 0 837
0 844 28 5 16 5 41 2 57 -5 28 -5 28 -838 28 -608 0 -835 -3 -844 -12z"/>
<path d="M3376 7183 c-3 -4 -6 -41 -6 -83 0 -77 0 -77 1083 -75 657 1 1087 -2
1094 -8 7 -5 20 -7 28 -3 13 5 15 21 13 88 -3 83 -3 83 -1104 85 -606 1 -1104
-1 -1108 -4z m124 -69 c0 -9 -5 -14 -12 -12 -18 6 -21 28 -4 28 9 0 16 -7 16
-16z"/>
<path d="M2933 7159 c-6 -6 -79 -11 -202 -11 -151 -1 -191 -4 -191 -15 0 -10
38 -13 183 -12 102 0 194 -4 209 -10 21 -8 29 -7 39 5 22 26 -14 67 -38 43z"/>
<path d="M5997 7154 c-13 -13 -8 -42 9 -48 8 -3 24 -1 34 4 10 6 98 10 199 10
114 0 181 4 181 10 0 13 9 12 -170 15 -85 1 -175 6 -200 9 -25 4 -48 4 -53 0z"/>
<path d="M5567 6993 c-4 -3 -87 -6 -184 -7 -178 -1 -178 -1 -178 -71 0 -38 1
-75 3 -80 1 -7 71 -10 192 -10 190 0 190 0 190 82 0 75 -7 102 -23 86z"/>
<path d="M3371 6967 c-5 -12 -6 -48 -3 -79 4 -57 4 -57 41 -61 20 -3 106 -4
191 -3 155 1 155 1 158 83 3 81 3 81 -188 82 -188 1 -191 0 -199 -22z m119
-27 c0 -5 -5 -10 -11 -10 -5 0 -7 5 -4 10 3 6 8 10 11 10 2 0 4 -4 4 -10z"/>
<path d="M4107 6983 c-13 -12 -8 -140 6 -150 6 -4 176 -8 377 -8 365 0 365 0
368 82 3 82 3 82 -371 83 -205 0 -376 -3 -380 -7z"/>
<path d="M6895 6920 c-11 -5 -77 -9 -146 -9 -127 -1 -127 -1 -247 -116 -66
-63 -127 -115 -135 -115 -22 0 -32 -21 -16 -31 25 -15 48 1 162 116 112 113
112 113 202 118 50 2 119 0 154 -5 70 -11 94 -1 75 29 -13 21 -24 24 -49 13z"/>
<path d="M2020 6897 c0 -32 17 -38 56 -19 25 12 55 13 147 7 115 -7 115 -7
226 -122 84 -86 117 -114 133 -111 28 4 36 28 9 28 -13 0 -63 43 -134 115
-113 115 -113 115 -229 115 -63 0 -136 3 -162 6 -44 6 -46 6 -46 -19z"/>
<path d="M3727 6794 c-3 -3 -85 -6 -181 -7 -176 -1 -176 -1 -176 -83 0 -82 0
-82 1093 -82 600 0 1099 -1 1107 -3 12 -3 16 12 18 84 3 89 3 89 -170 86 -96
-2 -179 0 -185 4 -16 10 -36 -19 -28 -42 3 -11 0 -23 -7 -27 -6 -4 -83 -10
-169 -12 -157 -4 -157 -4 -164 35 -6 40 -6 40 -383 39 -377 -1 -377 -1 -380
-32 -3 -30 -6 -32 -55 -38 -64 -7 -211 -6 -251 3 -23 5 -32 14 -38 38 -8 32
-21 47 -31 37z m1760 -90 c-3 -3 -12 -4 -19 -1 -8 3 -5 6 6 6 11 1 17 -2 13
-5z"/>
<path d="M2898 6772 c-28 -3 -28 -4 -28 -78 0 -74 0 -74 183 -72 182 3 182 3
185 63 4 91 6 90 -165 90 -81 0 -160 -1 -175 -3z"/>
<path d="M5883 6773 c-151 -4 -151 -4 -155 -69 -1 -36 0 -70 3 -75 3 -6 82 -8
185 -7 179 3 179 3 182 72 3 73 -4 88 -43 84 -11 -2 -88 -4 -172 -5z m132 -63
c11 -18 -5 -30 -25 -18 -10 7 -16 16 -14 20 7 11 32 10 39 -2z"/>
<path d="M2874 6581 c-2 -2 -4 -37 -4 -78 0 -73 0 -73 43 -75 23 0 62 -2 87
-3 74 -3 81 5 78 88 -3 72 -3 72 -101 72 -54 0 -100 -2 -103 -4z m56 -45 c0
-3 -4 -8 -10 -11 -5 -3 -10 -1 -10 4 0 6 5 11 10 11 6 0 10 -2 10 -4z"/>
<path d="M4468 6583 c-1097 -3 -1097 -3 -1103 -24 -4 -12 -4 -45 0 -74 6 -52
7 -53 43 -57 20 -2 519 -4 1107 -3 1070 1 1070 1 1073 83 2 63 0 81 -10 80 -7
-2 -507 -4 -1110 -5z m-1056 -55 c-7 -7 -12 -8 -12 -2 0 14 12 26 19 19 2 -3
-1 -11 -7 -17z"/>
<path d="M5890 6505 c0 -80 0 -80 103 -80 102 0 102 0 105 78 2 42 -1 77 -5
77 -4 0 -52 1 -106 3 -97 2 -97 2 -97 -78z"/>
<path d="M2064 6386 c-12 -31 4 -49 34 -40 15 4 132 9 261 10 214 3 253 6 240
19 -3 2 -110 6 -239 9 -129 2 -247 7 -262 11 -21 5 -29 3 -34 -9z"/>
<path d="M2877 6394 c-13 -13 -8 -152 6 -156 6 -2 51 -2 98 0 87 3 87 3 93 61
10 88 7 91 -84 91 -43 0 -85 2 -92 5 -8 3 -17 2 -21 -1z"/>
<path d="M5568 6395 c-3 -3 -498 -5 -1101 -5 -1097 -1 -1097 -1 -1097 -80 0
-80 0 -80 1098 -80 841 0 1101 3 1110 12 14 14 17 144 3 152 -4 3 -10 3 -13 1z"/>
<path d="M5894 6391 c-2 -2 -4 -37 -4 -78 0 -73 0 -73 90 -74 50 -1 96 -2 103
-3 15 -1 23 132 9 146 -9 9 -190 17 -198 9z"/>
<path d="M6856 6393 c-4 -4 -121 -8 -259 -8 -339 0 -337 -18 3 -27 140 -4 264
-8 275 -10 15 -2 20 3 20 22 0 24 -23 38 -39 23z"/>
<path d="M5894 6201 c-2 -2 -4 -36 -4 -76 0 -71 0 -71 103 -71 102 1 102 1
105 74 2 39 -1 72 -5 72 -95 4 -196 4 -199 1z m43 -73 c-3 -8 -6 -5 -6 6 -1
11 2 17 5 13 3 -3 4 -12 1 -19z m103 2 c0 -5 -7 -10 -15 -10 -8 0 -15 5 -15
10 0 6 7 10 15 10 8 0 15 -4 15 -10z"/>
<path d="M2872 6128 c3 -73 3 -73 97 -76 107 -3 111 -1 111 70 0 78 1 78 -112
78 -99 0 -99 0 -96 -72z m121 7 c-3 -9 -8 -14 -10 -11 -3 3 -2 9 2 15 9 16 15
13 8 -4z m-68 -15 c3 -5 1 -10 -4 -10 -6 0 -11 5 -11 10 0 6 2 10 4 10 3 0 8
-4 11 -10z"/>
<path d="M4970 6070 c-45 -5 -45 -5 -48 -53 -3 -51 12 -84 32 -68 6 4 46 7 88
5 77 -3 77 -3 83 30 4 18 5 44 3 57 -3 21 -9 25 -58 29 -30 3 -75 3 -100 0z
m-3 -92 c-3 -7 -5 -2 -5 12 0 14 2 19 5 13 2 -7 2 -19 0 -25z"/>
<path d="M3837 6064 c-9 -10 -9 -86 1 -99 4 -5 47 -10 96 -10 85 0 89 1 98 25
5 13 8 38 6 55 -3 30 -3 30 -98 33 -53 1 -99 0 -103 -4z"/>
<path d="M7120 6050 c-14 -4 -193 -8 -397 -9 -242 -1 -373 -5 -373 -11 0 -13
-37 -11 380 -15 201 -2 381 -6 401 -10 29 -6 37 -4 43 10 3 10 1 24 -5 31 -13
15 -13 15 -49 4z"/>
<path d="M1786 6034 c-9 -23 11 -37 40 -28 16 4 196 8 401 9 330 0 398 3 382
19 -2 3 -188 6 -412 8 -287 2 -408 0 -411 -8z"/>
<path d="M2865 6000 c-3 -8 -1 -35 3 -60 8 -45 8 -45 107 -45 100 0 100 0 103
39 7 80 5 81 -108 81 -80 0 -101 -3 -105 -15z"/>
<path d="M5892 5955 c3 -60 3 -60 103 -60 100 0 100 0 100 59 0 60 0 60 -103
61 -103 1 -103 1 -100 -60z m58 9 c0 -8 -4 -14 -10 -14 -5 0 -10 9 -10 21 0
11 5 17 10 14 6 -3 10 -13 10 -21z"/>
<path d="M3830 5844 c0 -45 5 -75 13 -81 15 -12 1064 -11 1090 1 11 5 23 4 30
-3 14 -14 57 -15 57 -1 0 7 7 7 20 0 12 -6 33 -10 48 -8 23 3 28 9 36 49 5 25
6 62 2 81 -6 35 -6 35 -651 34 -645 0 -645 0 -645 -72z m1110 -3 c0 -6 -4 -13
-10 -16 -5 -3 -10 1 -10 9 0 9 5 16 10 16 6 0 10 -4 10 -9z"/>
<path d="M2014 5809 c-16 -18 -16 -21 -1 -36 13 -14 21 -15 42 -5 18 8 116 12
320 12 190 0 295 4 295 10 0 11 -3 11 -348 11 -185 -1 -239 2 -262 14 -25 13
-29 13 -46 -6z"/>
<path d="M6891 5809 c-14 -5 -126 -7 -275 -5 -250 5 -326 1 -326 -15 0 -5 133
-9 295 -9 206 0 301 -3 314 -12 26 -16 53 -3 49 24 -3 26 -22 31 -57 17z"/>
<path d="M3868 5722 c-38 -3 -38 -3 -38 -72 0 -38 5 -72 10 -75 6 -3 50 -8
100 -9 102 -4 100 -5 100 85 0 39 -4 61 -12 64 -20 6 -119 10 -160 7z"/>
<path d="M4923 5714 c-2 -6 -3 -40 -1 -75 3 -70 -3 -64 73 -71 11 -1 44 -1 73
0 53 2 53 2 50 78 -3 75 -3 75 -97 77 -61 1 -95 -2 -98 -9z"/>
<path d="M2373 5583 c-19 -7 -16 -43 3 -50 9 -3 25 -1 35 5 13 9 135 12 428
12 263 0 412 4 416 10 4 6 -14 10 -47 10 -538 3 -796 6 -808 12 -8 3 -21 4
-27 1z"/>
<path d="M6540 5580 c-9 -6 -178 -10 -427 -10 -264 0 -414 -4 -418 -10 -4 -7
135 -10 409 -10 297 0 422 -3 441 -12 21 -9 29 -9 42 4 31 32 -8 63 -47 38z"/>
<path d="M3524 5516 c-3 -7 -4 -35 -2 -62 3 -49 3 -49 253 -46 138 2 254 7
259 12 4 4 5 31 1 59 -7 51 -7 51 -256 51 -203 0 -251 -3 -255 -14z"/>
<path d="M4925 5490 c-13 -79 -11 -80 143 -80 75 -1 188 -2 250 -3 63 -1 116
1 118 5 3 5 2 33 -1 64 -7 55 -7 55 -255 53 -249 -1 -249 -1 -255 -39z"/>
<path d="M1917 5364 c-25 -26 9 -68 37 -45 11 9 153 13 527 14 403 2 513 5
517 15 3 10 -99 12 -505 12 -279 0 -522 2 -538 5 -17 4 -33 3 -38 -1z"/>
<path d="M3551 5361 c-20 -5 -24 -13 -25 -46 -1 -40 -1 -40 104 -40 104 0 104
0 113 38 5 21 7 40 5 43 -8 8 -171 12 -197 5z"/>
<path d="M5220 5318 c0 -49 0 -49 108 -46 107 3 107 3 110 48 3 45 3 45 -108
46 -110 1 -110 1 -110 -48z"/>
<path d="M6478 5363 c-285 -2 -518 -7 -518 -12 0 -17 125 -22 556 -21 302 1
448 -2 468 -10 38 -14 58 -6 54 22 -2 15 -10 23 -23 23 -11 0 -253 -1 -537 -2z"/>
<path d="M3102 5343 c2 -10 12 -18 23 -18 11 0 21 8 23 18 3 13 -3 17 -23 17
-20 0 -26 -4 -23 -17z"/>
<path d="M5812 5343 c4 -22 43 -25 43 -3 0 8 -11 16 -23 18 -19 3 -23 0 -20
-15z"/>
<path d="M2047 4763 c-11 -11 -8 -1011 3 -1015 5 -1 114 -1 242 2 233 5 233 5
233 88 0 46 -4 87 -9 90 -5 3 -58 4 -118 3 -108 -3 -108 -3 -108 418 0 421 0
421 -118 421 -65 0 -122 -3 -125 -7z"/>
<path d="M2610 4261 c0 -327 4 -511 10 -513 5 -1 114 -1 242 2 233 5 233 5
234 93 1 57 -3 87 -10 88 -6 0 -60 1 -120 2 -108 2 -108 2 -107 122 1 66 4
121 6 124 2 2 49 3 104 2 88 -2 100 0 104 16 9 34 6 138 -5 150 -7 9 -43 13
-115 13 -92 0 -104 2 -99 16 3 9 6 60 6 115 0 98 0 98 108 97 59 -1 112 1 117
4 6 3 10 44 10 90 0 83 0 83 -243 86 -242 2 -242 2 -242 -507z"/>
<path d="M3168 4765 c-2 -3 1 -33 8 -67 8 -35 27 -142 44 -238 17 -96 38 -206
46 -245 8 -38 30 -157 48 -263 18 -107 37 -197 43 -200 6 -4 78 -6 161 -4 149
3 149 3 155 40 3 20 28 161 56 312 90 481 121 651 121 660 0 6 -49 10 -115 10
-111 0 -115 -1 -119 -22 -2 -13 -14 -102 -27 -198 -12 -96 -28 -218 -35 -270
-8 -52 -16 -131 -19 -175 -9 -120 -14 -145 -30 -145 -12 0 -15 15 -15 70 0 38
-9 134 -20 212 -11 79 -29 215 -41 303 -11 88 -23 175 -25 193 -5 32 -5 32
-118 32 -62 0 -115 -2 -118 -5z"/>
<path d="M3937 4764 c-3 -4 -7 -233 -7 -510 0 -504 0 -504 245 -504 246 0 246
0 243 92 -3 93 -3 93 -121 89 -118 -3 -118 -3 -115 124 3 127 3 127 108 129
105 1 105 1 105 86 0 85 0 85 -108 88 -108 3 -108 3 -105 115 3 112 3 112 108
113 58 1 111 2 118 3 10 1 12 23 10 89 -3 87 -3 87 -239 90 -129 1 -238 -1
-242 -4z"/>
<path d="M4520 4758 c-4 -267 3 -1004 9 -1008 5 -3 113 -4 240 -2 232 3 232 3
229 95 -3 92 -3 92 -118 88 -115 -3 -115 -3 -112 418 3 421 3 421 -123 421
-93 0 -125 -3 -125 -12z"/>
<path d="M5422 4316 c3 -454 3 -454 34 -493 58 -72 78 -78 270 -81 214 -5 267
5 317 56 28 29 39 51 47 93 6 33 9 217 8 464 -3 410 -3 410 -133 410 -130 0
-130 0 -133 -409 -1 -282 -6 -413 -13 -423 -7 -7 -31 -13 -59 -13 -84 0 -80
-19 -80 431 0 217 0 400 0 407 0 9 -33 12 -130 12 -131 0 -131 0 -128 -454z"/>
<path d="M6230 4262 c0 -325 4 -512 10 -514 5 -1 64 -2 130 0 119 3 119 3 122
159 3 155 3 155 133 154 117 -2 134 1 175 21 32 16 52 36 69 68 23 41 25 57
29 220 6 255 -14 334 -98 377 -31 15 -68 18 -302 21 -268 3 -268 3 -268 -506z
m388 316 c9 -8 12 -53 12 -164 0 -175 2 -172 -87 -172 -53 0 -53 0 -53 172 0
95 2 175 5 178 9 8 109 -4 123 -14z"/>
<path d="M2373 3523 c-53 -5 -92 -47 -94 -101 -8 -226 7 -252 146 -252 56 0
66 3 95 30 23 22 31 36 28 57 -2 23 -8 29 -33 31 -26 2 -32 -2 -42 -28 -11
-30 -13 -31 -65 -28 -53 3 -53 3 -58 93 -3 50 -2 100 2 112 15 46 123 38 130
-9 2 -18 9 -23 33 -23 43 0 47 42 8 83 -30 33 -72 42 -150 35z"/>
<path d="M4183 3523 c-12 -2 -34 -18 -49 -36 -22 -26 -25 -38 -21 -75 7 -62
29 -80 105 -88 51 -6 66 -12 79 -30 23 -35 9 -60 -37 -68 -50 -8 -90 7 -90 34
0 16 -7 20 -30 20 -38 0 -46 -19 -26 -59 22 -42 44 -51 125 -51 60 0 74 3 100
26 27 22 31 33 31 73 0 77 -11 85 -155 119 -21 5 -31 15 -33 30 -5 34 16 52
59 52 33 0 41 -4 49 -25 7 -19 17 -25 40 -25 40 0 47 22 21 59 -30 42 -94 58
-168 44z"/>
<path d="M4893 3523 c-46 -9 -70 -54 -77 -147 -13 -157 19 -206 131 -206 96 0
143 33 143 101 0 15 -7 19 -31 19 -24 0 -32 -6 -40 -29 -12 -33 -53 -47 -93
-31 -35 13 -40 26 -42 118 -2 73 0 85 19 102 11 11 31 20 43 20 36 0 74 -21
74 -41 0 -24 16 -32 46 -25 52 14 14 97 -54 116 -37 10 -78 11 -119 3z"/>
<path d="M5208 3523 c-16 -4 -18 -19 -18 -134 0 -137 12 -189 47 -207 36 -19
121 -23 157 -8 58 24 64 44 67 201 2 140 2 140 -32 140 -34 0 -34 0 -31 -125
4 -148 -2 -163 -66 -163 -69 0 -72 8 -72 158 0 112 -2 134 -16 139 -9 3 -16 5
-17 5 -1 -1 -10 -3 -19 -6z"/>
<path d="M2630 3510 c0 -5 25 -52 55 -105 51 -88 55 -99 55 -160 0 -60 2 -65
24 -71 38 -9 46 2 46 68 0 51 6 74 36 132 20 39 45 82 55 95 29 36 24 51 -16
51 -35 0 -37 -3 -68 -70 -32 -69 -52 -86 -64 -52 -3 9 -16 41 -30 70 -22 48
-26 52 -58 52 -19 0 -35 -4 -35 -10z"/>
<path d="M3019 3513 c0 -6 0 -292 1 -337 0 -4 49 -7 109 -4 128 4 146 14 157
85 5 37 3 50 -16 75 -20 28 -21 31 -5 48 13 14 15 28 10 64 -10 66 -31 76
-155 76 -55 0 -100 -3 -101 -7z m182 -59 c11 -7 12 -45 0 -62 -10 -17 -91 -23
-108 -9 -7 5 -13 24 -13 42 0 19 6 36 13 39 14 6 94 -1 108 -10z m13 -157 c16
-46 -1 -62 -73 -65 -61 -3 -61 -3 -61 41 0 24 3 46 6 49 3 3 31 5 62 4 52 -1
57 -3 66 -29z"/>
<path d="M3402 3348 c3 -173 3 -173 118 -173 115 0 115 0 115 25 0 24 -2 25
-82 28 -83 3 -83 3 -83 52 0 50 0 50 68 44 55 -5 70 -4 81 10 7 9 10 23 7 32
-5 14 -18 16 -81 12 -75 -5 -75 -5 -75 41 0 47 0 47 83 46 81 0 82 0 82 25 0
25 0 25 -118 28 -117 3 -117 3 -115 -170z"/>
<path d="M3742 3348 c3 -173 3 -173 33 -173 30 0 30 0 33 63 3 62 3 62 36 62
31 0 36 -5 62 -57 33 -67 39 -73 77 -73 34 0 34 4 -2 70 -30 54 -30 54 0 87
23 26 29 43 29 78 0 55 -15 90 -47 104 -13 6 -69 11 -124 11 -99 0 -99 0 -97
-172z m190 98 c11 -15 10 -74 -1 -80 -4 -3 -34 -8 -65 -12 -56 -7 -56 -7 -56
48 0 30 2 57 5 60 9 9 110 -4 117 -16z"/>
<path d="M4484 3507 c-2 -7 -3 -85 -2 -172 3 -160 3 -160 118 -160 115 0 115
0 115 25 0 24 -2 25 -83 28 -83 3 -83 3 -80 50 3 47 3 47 74 44 58 -3 72 -1
77 12 14 36 -2 46 -79 46 -74 0 -74 0 -74 43 0 44 0 44 80 39 80 -5 80 -5 80
27 0 31 0 31 -110 31 -81 0 -112 -3 -116 -13z"/>
<path d="M5582 3348 c3 -173 3 -173 33 -173 30 0 30 0 28 63 -3 62 -3 62 35
61 35 0 38 -3 67 -62 27 -55 34 -62 63 -65 37 -4 40 7 13 52 -35 57 -36 75 -6
106 25 26 27 34 23 86 -4 47 -10 62 -32 81 -24 21 -37 23 -127 23 -99 0 -99 0
-97 -172z m183 62 c0 -45 0 -45 -55 -51 -30 -3 -58 -4 -62 -2 -12 6 -10 87 2
99 5 5 33 7 62 4 53 -5 53 -5 53 -50z"/>
<path d="M5952 3348 c3 -173 3 -173 33 -173 30 0 30 0 30 170 0 170 0 170 -33
173 -32 3 -32 3 -30 -170z"/>
<path d="M6104 3505 c-13 -34 4 -48 51 -42 32 5 45 3 45 -6 1 -6 2 -73 3 -147
2 -135 2 -135 32 -135 30 0 30 0 33 143 3 142 3 142 52 142 49 0 50 1 50 30 0
30 0 30 -130 30 -107 0 -132 -3 -136 -15z"/>
<path d="M6437 3512 c-3 -4 11 -34 30 -67 76 -127 84 -148 83 -200 -2 -75 -2
-75 30 -75 33 0 33 1 30 76 -1 47 4 62 59 159 34 59 61 109 61 111 0 2 -17 4
-37 4 -37 0 -39 -2 -71 -70 -18 -39 -37 -70 -42 -70 -6 0 -24 32 -41 70 -30
66 -33 70 -65 70 -18 0 -35 -3 -37 -8z"/>
</g>
</svg>
